# xmcd CD database file
#
# Track frame offsets:
#	150
#	22015
#	40042
#	54487
#	67325
#	82665
#	101838
#	120186
#	131916
#	145326
#	161841
#	184311
#	196660
#	209047
#	231750
#	250482
#	264777
#	276612
#
# Disc length: 3902 seconds
#
# Revision: 0
# Processed by: cddbd v1.5PL3 Copyright (c) Steve Scherf et al.
# Submitted via: CDex 1.51
#
DISCID=100f3c12
DTITLE=Fruko Y Sus Tesos - Todos Bailan Salsa
DYEAR=1999
DGENRE=Salsa
TTITLE0=El Preso
TTITLE1=El Ausente
TTITLE2=Lupia
TTITLE3=La Parchanga Del Fútbol
TTITLE4=El Patillero
TTITLE5=Barranquillero Arrebatao
TTITLE6=Manyoma
TTITLE7=Mambo No. 5
TTITLE8=Cerezo Rosa
TTITLE9=Tania
TTITLE10=Los Charcos
TTITLE11=Chachacha Con Pachanga
TTITLE12=Swing Pachanga
TTITLE13=Salsa Brava
TTITLE14=Oye Como Va
TTITLE15=Mambo Del Politécnico
TTITLE16=Mambo Del Mercado La Merced
TTITLE17=Todos Bailan Salsa
EXTD=YEAR: 1999
EXTT0=
EXTT1=
EXTT2=
EXTT3=
EXTT4=
EXTT5=
EXTT6=
EXTT7=
EXTT8=
EXTT9=
EXTT10=
EXTT11=
EXTT12=
EXTT13=
EXTT14=
EXTT15=
EXTT16=
EXTT17=
PLAYORDER=
